<svg xmlns="http://www.w3.org/2000/svg" viewBox="0 0 24 24">
    <title>archive-drawer</title>
    <g fill="none" stroke="currentColor" stroke-linecap="round" stroke-linejoin="round">
        <path d="M17.5,14.5a1,1,0,0,0-1,1,1,1,0,0,1-1,1h-7a1,1,0,0,1-1-1,1,1,0,0,0-1-1h-5a1,1,0,0,0-1,1v6a1,1,0,0,0,1,1h21a1,1,0,0,0,1-1v-6a1,1,0,0,0-1-1Z"/>
        <path d="M7.5,13V2.5a1,1,0,0,1,1-1h11a1,1,0,0,1,1,1v12"/>
        <path d="M3.5,14.5V4.5a1,1,0,0,1,1-1h1"/>
        <line x1="12.496" y1="5.5" x2="17.5" y2="5.5"/>
        <line x1="10.5" y1="8.5" x2="17.5" y2="8.5"/>
        <line x1="10.5" y1="11.5" x2="17.5" y2="11.5"/>
    </g>
</svg>
