<svg version="1.1" xmlns="http://www.w3.org/2000/svg" xmlns:xlink="http://www.w3.org/1999/xlink" x="0px" y="0px"
	 viewBox="0 0 24 24" style="enable-background:new 0 0 24 24;" xml:space="preserve">
<g>
	<title>arrow-down-1</title>
	<path d="M12.04,18.867c-0.286,0-0.559-0.123-0.749-0.336L0.167,5.957C-0.016,5.751,0.003,5.434,0.21,5.252
		c0.092-0.081,0.209-0.126,0.331-0.126c0.143,0,0.28,0.062,0.375,0.169l11.125,12.573L23.167,5.295
		c0.095-0.107,0.231-0.169,0.375-0.169c0.122,0,0.24,0.045,0.331,0.125c0.207,0.183,0.226,0.5,0.043,0.706L12.79,18.531
		c-0.026,0.03-0.054,0.057-0.083,0.083C12.521,18.778,12.285,18.867,12.04,18.867z"/>
</g>
</svg>
