<svg xmlns="http://www.w3.org/2000/svg" viewBox="0 0 24 24">
    <title>calendar-date</title>
    <g fill="none" stroke="currentColor" stroke-linecap="round" stroke-linejoin="round">
        <rect x="0.5" y="2.501" width="23" height="21" rx="1" ry="1"/>
        <line x1="5.5" y1="0.501" x2="5.5" y2="5.501"/>
        <line x1="18.5" y1="0.501" x2="18.5" y2="5.501"/>
        <line x1="0.5" y1="7.501" x2="23.5" y2="7.501"/>
        <line x1="6.5" y1="19.001" x2="11.5" y2="19.001"/>
        <path d="M9,19V11.5a.5.5,0,0,0-.812-.391L6.5,12.46"/>
        <path d="M15.5,19l2.931-7.255a.469.469,0,0,0-.005-.5A.546.546,0,0,0,17.962,11H14a.5.5,0,0,0-.5.5v1"/>
    </g>
</svg>
