<svg xmlns="http://www.w3.org/2000/svg" viewBox="0 0 24 24">
    <title>chat-translate</title>
    <g fill="none" stroke="currentColor" stroke-linecap="round" stroke-linejoin="round">
        <path d="M7.5,11.5h-2l-3,3v-3h-1a1,1,0,0,1-1-1v-9a1,1,0,0,1,1-1h12a1,1,0,0,1,1,1v9"/>
        <path d="M16.5,10.5h6a1,1,0,0,1,1,1v8a1,1,0,0,1-1,1h-1v3l-3-3h-8a1,1,0,0,1-1-1v-8a1,1,0,0,1,1-1h1"/>
        <path d="M5.5,8.5V4a1.5,1.5,0,0,1,3,0V8.5"/>
        <line x1="5.5" y1="5.5" x2="8.5" y2="5.5"/>
        <line x1="17.5" y1="13.5" x2="17.5" y2="12.5"/>
        <line x1="14.5" y1="13.5" x2="20.5" y2="13.5"/>
        <path d="M16,13.5A4.868,4.868,0,0,0,20,18"/>
        <path d="M19,13.5A4.868,4.868,0,0,1,15,18"/>
    </g>
</svg>
