<svg xmlns="http://www.w3.org/2000/svg" viewBox="0 0 24 24">
    <title>copy-paste-1</title>
    <g fill="none" stroke="currentColor" stroke-linecap="round" stroke-linejoin="round">
        <path d="M9.5,22.5h-8a1,1,0,0,1-1-1V4.5a1,1,0,0,1,1-1h4"/>
        <path d="M13.5,3.5h4a1,1,0,0,1,1,1V8"/>
        <path d="M11.5,2.5a2,2,0,0,0-4,0h-2v3h8v-3Z"/>
        <path d="M22.5,22.5a1,1,0,0,1-1,1h-9a1,1,0,0,1-1-1V11a1,1,0,0,1,1-1h7.086a1,1,0,0,1,.707.293l1.914,1.914a1,1,0,0,1,.293.707Z"/>
        <line x1="14.5" y1="14.499" x2="19.5" y2="14.499"/>
        <line x1="14.5" y1="17.499" x2="19.5" y2="17.499"/>
    </g>
</svg>
