<svg xmlns="http://www.w3.org/2000/svg" viewBox="0 0 24 24">
    <title>e-learning-book-laptop</title>
    <g fill="none" stroke="currentColor" stroke-linecap="round" stroke-linejoin="round">
        <rect x="3.5" y="3.001" width="17" height="12" rx="1" ry="1"/>
        <path d="M4.409,15a1.025,1.025,0,0,0-.883.5l-2.385,4A1,1,0,0,0,2.024,21H21.976a1,1,0,0,0,.883-1.5l-2.385-4a1.025,1.025,0,0,0-.883-.5"/>
        <line x1="9.5" y1="19.001" x2="14.5" y2="19.001"/>
        <path d="M12,6.7s.92-1.291,3.983-1.424a.5.5,0,0,1,.517.5v5.3a.5.5,0,0,1-.492.5C12.925,11.7,12,13,12,13V6.7s-.92-1.291-3.983-1.424a.5.5,0,0,0-.517.5v5.3a.5.5,0,0,0,.492.5C11.075,11.7,12,13,12,13"/>
    </g>
</svg>
