<svg xmlns="http://www.w3.org/2000/svg" viewBox="0 0 24 24">
    <title>logout-2</title>
    <g fill="none" stroke="currentColor" stroke-linecap="round" stroke-linejoin="round">
        <line x1="23.5" y1="12" x2="11.5" y2="12"/>
        <polyline points="19.5 16 23.5 12 19.5 8"/>
        <path d="M9.5,2.5H17a.5.5,0,0,1,.5.5V5.5"/>
        <path d="M17.5,18.5V21a.5.5,0,0,1-.5.5H9.5"/>
        <path class="a"
              d="M.5,21.223a.5.5,0,0,0,.392.488l8,1.777A.5.5,0,0,0,9.5,23V1A.5.5,0,0,0,8.892.512l-8,1.778A.5.5,0,0,0,.5,2.778Z"/>
        <circle cx="6" cy="12" r="1.5"/>
    </g>
</svg>
