<svg xmlns="http://www.w3.org/2000/svg" viewBox="0 0 24 24">
    <title>safety-helmet</title>
    <g fill="none" stroke="currentColor" stroke-linecap="round" stroke-linejoin="round">
        <path d="M23.5,15.239H1.5a1,1,0,0,1-1-1v-1a1,1,0,0,1,1-1h10"/>
        <path d="M1.5,12.239a8.5,8.5,0,0,1,16-4"/>
        <path d="M20.5,15.239v-3A10.5,10.5,0,0,0,11.4,1.831,3,3,0,0,0,9.087,2.5L6.937,4.315"/>
        <path d="M2.5,15.239v3.5a1.5,1.5,0,0,0,3,0,1.5,1.5,0,0,1,1.5-1.5H17.5a2,2,0,0,0,2-2"/>
    </g>
</svg>
