<svg xmlns="http://www.w3.org/2000/svg" viewBox="0 0 24 24">
    <title>single-neutral-actions-block</title>
    <g fill="none" stroke="currentColor" stroke-linecap="round" stroke-linejoin="round">
        <circle cx="17.5" cy="17.5" r="6"/>
        <line x1="13.258" y1="21.742" x2="21.743" y2="13.257"/>
        <path d="M9,16.5H.5a8.719,8.719,0,0,1,.7-3.322c.49-.981,2.539-1.661,5.111-2.613.695-.258.581-2.074.273-2.413A5.127,5.127,0,0,1,5.244,4.174,3.354,3.354,0,0,1,8.5.5a3.354,3.354,0,0,1,3.256,3.674A5.127,5.127,0,0,1,10.42,8.152c-.308.339-.422,2.155.273,2.413L12,11.046"/>
    </g>
</svg>
