<svg xmlns="http://www.w3.org/2000/svg" viewBox="0 0 24 24">
    <title>study-book</title>
    <g fill="none" stroke="currentColor" stroke-linecap="round" stroke-linejoin="round">
        <path d="M10.949,20.214c-1.215-1.442-4.422-2.85-9.465-3.013a1,1,0,0,1-.984-1V2.011a1,1,0,0,1,1.018-1C8.058,1.229,11.5,3.544,11.5,5.3c0-1.751,3.864-4.054,9.978-4.288a1,1,0,0,1,1.022,1V14.993"/>
        <line x1="11.5" y1="5.301" x2="11.5" y2="16.493"/>
        <path d="M9,5.993A24.764,24.764,0,0,0,3.486,4.711"/>
        <path d="M14.5,10.493a24.761,24.761,0,0,1,5.515-1.282"/>
        <path d="M9,10.493A24.764,24.764,0,0,0,3.486,9.211"/>
        <path d="M9,14.493A24.943,24.943,0,0,0,3.435,13.2"/>
        <path d="M14.5,5.993A24.894,24.894,0,0,1,20.067,4.7"/>
        <path d="M23.5,22.993v-1.1a2.888,2.888,0,0,0-2.747-2.9H18.5v-4.75a1.25,1.25,0,0,0-2.5,0v7.25l-1.521-2.139a1.05,1.05,0,1,0-1.858.978l1.4,2.661"/>
    </g>
</svg>
