<svg xmlns="http://www.w3.org/2000/svg" viewBox="0 0 24 24">
    <title>tags-cash</title>
    <g fill="none" stroke="currentColor" stroke-linejoin="round" stroke-linecap="round">
        <path d="M16.542,9.049l1.8-1.837a2.824,2.824,0,0,0,.7-1.714v-4a1,1,0,0,0-1-1L13.784.505a2.789,2.789,0,0,0-1.707.708L1.249,12.041a1,1,0,0,0,0,1.414l4.836,4.836a.99.99,0,0,0,1.407-.007l1.05-1.072"/>
        <circle cx="15.542" cy="3.998" r="1.5"/>
        <path d="M18.542,14.5H16.509a1.342,1.342,0,0,0-.5,2.588l2.063.825a1.341,1.341,0,0,1-.5,2.587H15.542"/>
        <line x1="17.042" y1="21.498" x2="17.042" y2="20.498"/>
        <line x1="17.042" y1="14.498" x2="17.042" y2="13.498"/>
        <circle cx="17.042" cy="17.498" r="6"/>
    </g>
</svg>
