<svg xmlns="http://www.w3.org/2000/svg" viewBox="0 0 24 24">
    <title>arrow-double-right</title>
    <path d="M23.306,11.281,17.645,5.312A1.006,1.006,0,0,0,16.919,5H12.164a1,1,0,0,0-.725,1.688l4.845,5.11a.25.25,0,0,1,0,.343l-4.858,5.175A1,1,0,0,0,12.155,19h4.763a1,1,0,0,0,.729-.316l5.662-6.032A1,1,0,0,0,23.306,11.281Z"/>
    <path d="M12.571,11.281,6.91,5.312A1,1,0,0,0,6.185,5H1.431A1,1,0,0,0,.7,6.688L5.55,11.8a.251.251,0,0,1,0,.343L.693,17.316A1,1,0,0,0,1.422,19H6.184a1,1,0,0,0,.728-.315l5.663-6.033A1,1,0,0,0,12.571,11.281Z"/>
</svg>
